<?xml version="1.0" encoding="UTF-8" standalone="yes"?>
<!DOCTYPE svg PUBLIC "-//W3C//DTD SVG 1.1//EN" "http://www.w3.org/Graphics/SVG/1.1/DTD/svg11.dtd">
<svg version="1.1"
     width="200" height="400"
     viewBox="0 0 200 400"
     xmlns="http://www.w3.org/2000/svg">
    <title property="dc:title">Depth First Search Stack Frames</title>
    <desc property="dc:creator">Jamie Rodríguez</desc>
    <metadata xmlns:rdf="http://www.w3.org/1999/02/22-rdf-syntax-ns#"
              xmlns:dc="http://purl.org/dc/elements/1.1/"
              xmlns:cc="http://creativecommons.org/ns#">
        <rdf:RDF>
            <rdf:Description rdf:about="">
                <dc:title>Depth First Search Stack Frames</dc:title>
                <dc:creator>Jamie Rodríguez</dc:creator>
            </rdf:Description>
        </rdf:RDF>
    </metadata>

    <style>
        .normal-text {
            fill: white;
            font: 10px monospace;
        }
        .header {
            fill: white;
            font: bold 12px monospace;
        }
        rect, line {
            stroke: white;
            stroke-width: 2;
        }
        rect {
            fill: none;
        }
    </style>
    <!-- Using absolute values -->
    <!-- Stack Frame A -->
    <rect width="200" height="359" />
    <text x="10" y="11" class="header">Stack frame: A</text>
    <line x1="0" y1="14" x2="200" y2="14" />
    <text x="10" y="25" class="normal-text">path: []</text>
    <text x="10" y="37" class="normal-text">visited: [A]</text>
    <line x1="0" y1="342" x2="200" y2="342" />
    <text x="10" y="353" class="normal-text">return [A, C, E]</text>
    <!-- Stack Frame B -->
    <rect x="5" y="43" width="190" height="142" />
    <text x="15" y="54" class="header">Stack frame: B</text>
    <line x1="5" y1="57" x2="195" y2="57" />
    <text x="15" y="68" class="normal-text">path: [A]</text>
    <text x="15" y="80" class="normal-text">visited: [A, B]</text>
    <line x1="5" y1="169" x2="195" y2="169" />
    <text x="15" y="180" class="normal-text">return undefined</text>
    <!-- Stack Frame D -->
    <rect x="10" y="86" width="180" height="76" />
    <text x="20" y="97" class="header">Stack frame: D</text>
    <line x1="10" y1="100" x2="190" y2="100" />
    <text x="20" y="111" class="normal-text">path: [A, B]</text>
    <text x="20" y="123" class="normal-text">visited: [A, B, D]</text>
    <line x1="10" y1="145" x2="190" y2="145" />
    <text x="20" y="156" class="normal-text">return undefined</text>
    <!-- Stack Frame C -->
    <rect x="5" y="190" width="190" height="143" />
    <text x="15" y="201" class="header">Stack frame: C</text>
    <line x1="5" y1="204" x2="195" y2="204" />
    <text x="15" y="215" class="normal-text">path: [A]</text>
    <text x="15" y="227" class="normal-text">visited: [A, B, D, C]</text>
    <line x1="5" y1="316" x2="195" y2="316" />
    <text x="15" y="327" class="normal-text">return [A, C, E]</text>
    <!-- Stack Frame E -->
    <rect x="10" y="233" width="180" height="76" />
    <text x="20" y="244" class="header">Stack frame: E</text>
    <line x1="10" y1="247" x2="190" y2="247" />
    <text x="20" y="258" class="normal-text">path: [A, C]</text>
    <text x="20" y="270" class="normal-text">visited: [A, B, D, C, E]</text>
    <line x1="10" y1="292" x2="190" y2="292" />
    <text x="20" y="303" class="normal-text">return [A, C, E]</text>
</svg>